<svg fill="none" height="435" viewBox="0 0 834 435" width="834" xmlns="http://www.w3.org/2000/svg" xmlns:xlink="http://www.w3.org/1999/xlink"><clipPath id="a"><path d="m335 99h161v237h-161z"/></clipPath><path d="m0 0h834v435h-834z" fill="#f2f2f2"/><g clip-path="url(#a)" clip-rule="evenodd" fill-rule="evenodd"><path d="m335.156 99.1556h160.688v160.4384h-160.688z" fill="#b32e28" stroke="#b32e28" stroke-miterlimit="22.9256" stroke-width=".1724"/><path d="m392.2 150.353c.311 18.206 9.195 32.523 27.275 33.612v-5.135c-14.651-.467-25.717-14.939-27.119-28.477zm-2.962 2.956c-1.091 0-1.87-.933-1.87-1.867 0-1.089.779-1.867 1.87-1.867s1.871.778 1.871 1.711c0 1.09-.935 2.023-1.871 2.023zm6.235-.622c-1.091 0-1.871-.934-1.871-1.868 0-.933.78-1.867 1.871-1.867s1.87.934 1.87 1.867c0 .934-.935 1.868-1.87 1.868zm-3.429-3.424c.935 0 1.87-.933 1.87-1.867s-.779-1.867-1.87-1.867-1.87.933-1.87 1.867.935 1.867 1.87 1.867zm27.431 94.302c-1.247-2.956-2.027-5.602-2.338-7.78-.312-1.557-.312-2.957-.312-4.202s.156-2.334.312-3.268c.311-1.867.467-3.423.156-4.513-.624-.311-3.897 3.735-6.079 4.046-3.585.623-4.052-2.178-6.702-3.112 1.871-.778 3.429-.622 5.144-1.401 1.558-.778 2.493-2.334 4.208-2.801 1.091-.311 2.493-.155 3.896.467.468 0 .156-.933-.312-2.334-.311-1.089-.779-2.179-.779-3.268 0-.933.312-1.712 1.091-2.334-.779-1.401-1.247-2.801-1.403-3.735-.155-2.334.624-3.579.468-5.291 0-1.245 0-2.956-.468-3.579-1.714.623-4.675 10.582-4.831 12.449l-2.494-1.556-1.558 2.801c-.624 1.09 2.493 4.202-.78 5.914l-.156-.156c.312-.934.312-1.867-.467-2.801-1.247-1.556-2.961-.467-5.299-2.023-1.247-1.401-2.806-1.556-3.897-1.089-.779.311-1.246.933-1.402 2.023h-.156c-.624-1.557-.156-2.801.935-3.579 2.338-1.868 8.26 1.089 9.04 0l1.402-2.49-2.493-1.556c6.39-4.513 6.39-12.294 5.922-19.452l-.467-.156c-1.091 6.536-3.897 11.516-8.417 14.939-1.714 1.245-3.74 2.49-6.078.623 2.805-1.868 5.611-5.758 6.546-9.026s1.247-7.003 1.247-11.049l-.935-.466c-1.247 7.313-5.299 11.048-7.949 12.916-1.87 1.4-4.208 2.645-6.234.778 3.117-2.49 5.455-5.758 6.702-9.182 1.246-3.579 1.714-7.469 1.402-11.515l-.311-.311c-1.559 6.847-3.273 10.115-7.17 13.071-1.87 1.401-4.208 2.334-6.39.312 4.052-3.113 5.611-5.758 6.858-10.582 1.091-4.669 1.87-8.559 1.714-13.85l-.312-1.089c-1.558 8.714-3.896 14.005-6.701 16.339-1.871 1.556-4.364 2.801-5.767 1.09 1.87-2.179 3.117-4.513 3.74-7.003 1.247-5.135 1.091-9.492.936-16.339 0-4.513.467-8.87 2.493-12.605 2.182-3.891 7.014-4.98 10.599-3.891 5.766 1.712 7.169 8.559 4.519 12.761-1.402 2.178-1.246 5.135-.467 6.536.935 1.711 2.805 3.423 4.831 4.979 1.715 1.401 6.546 4.669 9.508 4.202-.156-1.712.311-3.735.935-5.602.623-2.023 1.247-3.891 1.558-5.914.312-1.711 0-3.734-.779-4.979-.935-1.09-2.026-1.556-3.117-1.868-1.247-.467-2.026-.622-2.806-1.711-.311-.467-.467-1.557-.623-2.646.623.778 1.247 1.245 1.87 1.556.624.312 2.182.778 2.65.156-.468-1.245-1.559-2.179-2.65-2.801-1.558-.778-2.961-.467-4.208.778-.312-1.245-.156-2.801.935-3.579 1.091-.934 3.273-.623 4.364 0-.156-.934.312-1.712 1.559-1.868.935-.155 1.87.156 2.649.467 1.247.311 2.182.934 3.429 1.556zm-6.702-99.126c.467.156.779.467 1.091.934.467.622 2.026.311 2.961.622.468.156.779.312.779.312-.311-.467-.467-1.09-.935-1.557-.935-.933-3.896-1.556-3.896-.311zm33.977 5.914c-.312 18.206-9.196 32.523-27.275 33.612v-5.135c14.65-.467 25.716-14.939 26.963-28.477zm2.961 2.956c.935 0 1.87-.933 1.87-1.867 0-1.089-.779-1.867-1.87-1.867s-1.87.933-1.87 1.867.779 1.867 1.87 1.867zm-6.234-.622c.935 0 1.87-.934 1.87-1.868 0-.933-.779-2.023-1.87-2.023s-1.871.934-1.871 1.868c0 .933.935 2.023 1.871 2.023zm3.428-3.424c-.935 0-1.87-.933-1.87-1.867s.779-1.867 1.87-1.867 1.871.933 1.871 1.867c0 1.089-.935 1.867-1.871 1.867zm22.132-12.138h-49.562v6.847c1.246-.622 2.182-1.245 3.428-1.556.936-.155 1.715-.467 2.65-.311 1.247.156 1.714.934 1.714 1.867 1.091-.622 3.273-.933 4.364 0 .936.934 1.247 2.335.936 3.58-1.247-1.245-2.65-1.557-4.209-.779-1.246.623-2.182 1.557-2.649 2.802.467.622 2.182.155 2.649-.156.624-.311 1.091-.778 1.871-1.556-.156 1.089-.156 2.178-.624 2.645-.779 1.089-1.558 1.245-2.805 1.712-1.091.311-2.026.778-3.117 1.867-.935 1.245-1.091 3.268-.78 4.98.312 1.867.936 3.89 1.559 5.758.623 2.023 1.091 3.89.935 5.602 2.961.467 7.793-2.801 9.507-4.202 1.871-1.556 3.741-3.268 4.676-4.979.779-1.401.935-4.202-.467-6.536-2.65-4.202-1.247-11.049 4.519-12.761 3.585-1.089 8.417 0 10.599 3.891 2.182 3.735 2.649 8.092 2.493 12.605-.155 6.847-.311 11.204.935 16.339.624 2.49 1.715 4.824 3.741 7.003-1.403 1.711-3.896.466-5.767-1.09-2.805-2.334-5.143-7.78-6.701-16.339l-.312 1.089c0 5.135.623 9.181 1.714 13.85 1.091 4.668 2.806 7.469 6.858 10.582-2.182 2.022-4.52 1.089-6.39-.312-3.897-2.956-5.611-6.38-7.17-13.071l-.623.311c-.312 3.89.156 7.936 1.403 11.515 1.247 3.424 3.584 6.692 6.702 9.182-2.027 1.867-4.364.622-6.235-.778-2.649-1.868-6.546-5.603-7.948-12.916l-.312.311c-.156 4.201.312 7.936 1.091 11.048.935 3.268 3.74 7.159 6.546 9.026-2.338 2.023-4.364.778-6.079-.467-4.519-3.423-7.325-8.403-8.416-14.939l-.467.156c-.468 7.158-.468 14.939 5.922 19.452l-2.494 1.556 1.403 2.49c.624 1.089 6.546-1.868 8.884 0 .935.778 1.559 2.022.935 3.579h-.156c0-1.09-.623-1.712-1.402-2.023-1.091-.467-2.65-.312-3.897 1.089-2.338 1.556-4.052.467-5.299 2.023-.779.934-.779 1.712-.468 2.645l-.155.156c-3.273-1.712-.156-4.824-.78-5.913l-1.558-2.801-2.494 1.556c-.312-1.868-3.117-11.827-4.832-12.449-.467.622-.467 2.334-.467 3.579-.156 1.712.623 2.956.467 5.291-.155 1.089-.623 2.489-1.402 3.734.779.467 1.247 1.401 1.091 2.335 0 1.089-.468 2.334-.78 3.267-.467 1.245-.779 2.335-.311 2.335 1.402-.778 2.649-.934 3.896-.467 1.715.467 2.65 2.023 4.208 2.801 1.715.934 3.117.778 5.144 1.4-2.65 1.09-2.962 3.735-6.702 3.113-2.182-.312-5.455-4.513-6.079-4.202-.467 1.245-.156 2.646.156 4.513.156.934.156 2.023.156 3.268s-.156 2.645-.312 4.201c-.311 2.179-1.091 4.824-2.338 7.781 48.784-16.028 49.095-84.187 49.407-106.129zm-42.861 7.314c-.467.156-.779.623-1.246.934-.468.622-2.027.311-2.962.467-.467.155-.779.311-.779.311.312-.467.468-1.089.935-1.556 1.091-.934 4.052-1.556 4.052-.156zm-54.238 99.126h-.467l-9.663-120.6h.311c1.715 4.668 6.235 5.913 9.975 3.267zm97.099-117.955-99.437-10.426v.155c4.52 1.868 5.767 7.314 2.338 10.738h97.099z" fill="#fcd29e"/><path d="m357.599 286.982c0-3.268-2.337-5.291-6.701-5.291-1.871 0-3.585.155-4.988.155-.467 0-.935 0-1.558-.155.155 3.268.155 6.691.155 10.426 0 3.579 0 7.002-.155 10.27.467-.155 1.091-.155 1.558-.155.468 0 .779 0 1.247.155-.156-2.178-.156-3.89-.156-5.135v-4.357h2.338c5.299.156 8.26-2.023 8.26-5.913zm-2.961.311c0 3.112-2.182 4.824-6.546 4.824-.467 0-.935 0-1.403 0v-2.801c0-2.179 0-4.357.156-6.225.624 0 1.247-.155 1.871-.155 4.208 0 5.922 1.089 5.922 4.357zm17.612 8.092c0-4.357-2.961-7.47-7.169-7.47-4.053 0-7.17 2.957-7.17 7.47 0 4.357 2.961 7.469 7.17 7.469 4.208 0 7.169-2.956 7.169-7.469zm-2.65.155c0 4.202-1.558 6.225-4.519 6.225-2.962 0-4.676-2.179-4.676-6.536s1.558-6.536 4.52-6.536c3.117.156 4.831 2.49 4.675 6.847zm8.573 7.003c-.156-2.645-.156-7.158-.156-13.383 0-3.423 0-6.536.156-9.337-.468 0-.936.156-1.247.156-.312 0-.78 0-1.247 0 .156 1.712.156 3.579.156 5.913v7.937c0 3.89 0 6.847-.156 8.87.467 0 .779-.156 1.247-.156.311-.156.779-.156 1.247 0zm7.481-19.607c0-.934-.624-1.556-1.559-1.556-.779 0-1.558.622-1.558 1.556 0 .778.779 1.556 1.558 1.556.935 0 1.559-.623 1.559-1.556zm-.312 19.607c-.156-2.49-.156-4.98-.156-7.469 0-2.335 0-4.513.156-6.847-.312.155-.779.155-1.247.155-.467 0-.779 0-1.247-.155.156 2.178.156 4.512.156 6.847 0 2.489 0 4.979-.156 7.469.468-.156.78-.156 1.247-.156.468 0 .935 0 1.247.156zm11.845-.778-.156-.623c-.935.467-1.558.623-2.182.623-1.87 0-2.494-1.245-2.494-3.89 0-2.801.156-5.136.156-7.003 0-.156 0-.622 0-1.556h1.091c.78 0 1.715 0 2.806.155v-.311c0-.311 0-.622.156-.933-1.559.155-2.806.155-3.897.155v-2.023c0-.311 0-1.089.156-2.334-.623.311-1.558.622-2.494.778v2.49 1.089c-.623 0-1.246 0-1.87-.155v.466.778c.468 0 1.091-.155 1.559-.155h.311v1.089c0 4.046-.155 6.692-.155 8.248 0 2.801 1.091 4.201 3.896 4.201.935 0 2.182-.311 3.117-1.089zm13.715-7.158c0-4.202-2.337-6.536-6.078-6.536-4.208 0-7.014 2.957-7.014 7.469 0 4.358 2.806 7.314 7.17 7.314 1.87 0 3.585-.622 5.143-1.712v-.311c0-.311 0-.778 0-1.245-1.403 1.401-2.961 2.023-4.676 2.023-3.273 0-5.143-2.178-5.143-6.224v-.311h10.443c0-.156 0-.312.155-.467zm-2.493-.467h-7.949c.156-3.268 1.87-5.291 4.208-5.291s3.741 1.712 3.741 4.824zm17.144-4.98c-1.559-.778-3.273-1.245-4.987-1.245-4.52 0-7.482 2.957-7.482 7.47s2.806 7.469 7.17 7.469c2.182 0 3.74-.467 5.143-1.556 0-.156 0-.467 0-.622 0-.312 0-.623 0-1.09-1.403 1.556-2.805 2.179-4.52 2.179-3.117 0-5.299-2.334-5.299-6.38 0-4.202 1.87-6.38 5.143-6.38 1.871 0 3.273.933 4.209 2.801 0-.934.155-1.868.623-2.646zm14.806 13.383c0-2.023-.155-3.579-.155-4.668 0-1.712.155-3.268.155-4.669 0-3.579-1.558-5.291-4.831-5.291-2.026 0-3.429.778-4.676 2.801 0-1.4 0-2.801 0-4.201 0-1.868 0-4.202.156-6.692-.312 0-.779.156-1.247.156-.312 0-.779 0-1.247-.156.156 3.579.156 7.314.156 11.36 0 2.179 0 5.914-.156 11.36.468-.156.78-.156 1.247-.156.468 0 .935.156 1.247.156 0-1.712 0-2.801 0-3.579v-2.179c0-2.49 0-4.357.623-5.291.624-1.245 1.871-2.023 3.273-2.023 2.494 0 3.429 1.557 3.429 4.98 0 2.023 0 4.668-.156 8.092.468-.156.78-.156 1.247-.156.156 0 .468 0 .935.156zm16.521 0c0-1.712-.156-3.268-.156-4.824 0-1.401 0-2.957 0-4.357 0-3.579-1.558-5.447-4.831-5.447-2.026 0-3.585.934-4.832 2.957 0-.311 0-.778 0-1.089 0-.467 0-.934 0-1.556-.312.155-.779.155-1.247.155-.311 0-.779 0-1.246-.155.155 2.178.155 4.357.155 6.847v2.178c0 1.867 0 3.579-.155 5.291.467-.156.779-.156 1.246-.156.468 0 .935 0 1.247.156 0-1.556 0-3.424 0-5.758v-1.4c0-2.023 0-3.579 1.091-4.669.624-.933 1.715-1.4 2.806-1.4 2.337 0 3.428 1.556 3.428 4.513 0 3.579 0 6.535-.155 8.558.467-.155.779-.155 1.246-.155.468.155.936.155 1.403.311zm7.481-19.607c0-.934-.623-1.556-1.558-1.556s-1.559.622-1.559 1.556c0 .778.624 1.556 1.559 1.556s1.558-.623 1.558-1.556zm-.311 19.607c-.156-2.49-.156-4.98-.156-7.469 0-2.335 0-4.513.156-6.847-.312.155-.78.155-1.247.155-.468 0-.78 0-1.247-.155.156 2.178.156 4.512.156 6.847 0 2.489-.156 4.979-.156 7.469.467-.156.779-.156 1.247-.156.467 0 .935 0 1.247.156zm17.3 0c-2.806-3.268-5.144-5.913-7.17-8.403l2.806-2.49c1.714-1.556 2.961-2.645 3.896-3.423-.467 0-.935.155-1.403.155-.467 0-.935 0-1.402-.155-3.273 4.201-5.767 6.224-6.39 6.224-.312 0-.468-.156-.468-.467v-.933c0-3.735 0-8.092.156-13.072-.468 0-.779.156-1.247.156-.312 0-.779 0-1.247-.156.156 3.89.156 7.625.156 11.36 0 2.956 0 6.691-.156 11.36.468-.156.935-.156 1.247-.156.468 0 .935 0 1.247.156-.156-2.335-.156-4.202-.156-5.447v-1.712c0-.311 0-.466.312-.466.467 0 2.649 2.489 6.39 7.469.467-.156 1.091-.156 1.558-.156.78 0 1.247 0 1.871.156zm14.027-.467-.156-.622c-.156 0-.312 0-.468 0-1.246 0-1.402-.623-1.402-2.023v-.934l.156-5.135v-.311c0-3.424-1.403-5.136-4.832-5.136-1.87 0-3.585.623-4.832 1.712l-.155 1.556h.311c.935-1.4 2.182-2.178 3.897-2.178 2.493 0 3.429 1.244 3.429 4.046v.622c-.78.622-2.65.778-5.3 1.401-2.337.622-3.584 1.867-3.584 4.046 0 2.334 1.558 3.734 4.208 3.734 1.714 0 3.273-.778 4.52-2.023.156 1.245.623 1.712 1.714 1.712.779 0 1.559-.156 2.494-.467zm-4.208-3.112c0 .467 0 .778-.468 1.4-.779.778-2.026 1.401-2.961 1.401-1.715 0-2.65-1.089-2.65-2.957 0-2.334 1.871-2.956 6.235-3.579zm-119.542 16.028c-.312.156-.624.156-1.091.156-.468 0-.624 0-.936-.156-1.558 5.913-3.273 11.827-5.299 17.584-2.182-5.913-4.052-11.671-5.766-17.428-.312.155-.624.155-.936.155-.311 0-.623 0-.935-.155-1.714 6.224-3.584 12.138-5.766 17.74-2.027-6.069-3.741-12.138-5.3-17.74-.467.155-.935.155-1.402.155-.468 0-1.091 0-1.559-.155 2.338 7.314 4.52 14.316 6.546 20.696.312-.155.779-.155 1.091-.155s.779.155 1.091.155c.935-2.489 2.806-8.092 5.611-16.962 2.026 5.758 4.052 11.36 5.611 16.962.312-.155.623-.155 1.091-.155.312 0 .623 0 1.091.155 2.338-6.847 4.52-13.849 6.858-20.852zm8.572 6.38c-.468-.155-.935-.155-1.091-.155-1.559 0-2.65 1.245-3.741 3.423 0-1.245 0-2.334.156-3.268-.468.156-.779.156-1.247.156-.467 0-.779 0-1.247-.156.156 1.245.156 2.801.156 4.357 0 4.513 0 7.781-.156 9.96.468 0 .78-.156 1.091-.156.468 0 .935 0 1.403.156-.156-1.401-.156-3.424-.156-6.069 0-4.046.935-6.069 3.117-6.069.468 0 .935.155 1.403.311l.312-.156c-.156-.933-.156-1.711 0-2.334zm15.741 7.159c0-4.358-2.961-7.47-7.169-7.47-4.052 0-7.17 2.957-7.17 7.47 0 4.512 2.962 7.469 7.17 7.469s7.169-2.957 7.169-7.469zm-2.494.155c0 4.202-1.558 6.38-4.519 6.38-2.962 0-4.676-2.178-4.676-6.535 0-4.358 1.559-6.536 4.52-6.536s4.675 2.334 4.675 6.691zm17.145-6.38c-1.559-.778-3.273-1.245-4.988-1.245-4.52 0-7.481 2.957-7.481 7.47 0 4.512 2.806 7.469 7.17 7.469 2.182 0 3.74-.467 5.143-1.556 0-.156 0-.467 0-.623 0-.311 0-.622.156-1.089-1.403 1.556-2.806 2.179-4.52 2.179-3.117 0-5.299-2.335-5.299-6.38 0-4.202 1.87-6.381 5.143-6.381 1.87 0 3.273.934 4.208 2.801-.156-.933.156-1.867.468-2.645zm7.481-1.556v-1.556c-.468.311-1.091.933-2.182 1.711v-.311c0-2.956 0-5.602.156-7.469-.468 0-.935 0-1.247 0s-.779 0-1.247 0c.156 2.49.156 5.291.156 8.559v.778c-.935.622-1.247.778-2.026 1.4v1.556c1.247-1.089 1.87-1.556 2.026-1.712v4.358c0 3.268 0 5.913-.156 7.625.468 0 .779-.156 1.247-.156.467 0 .935 0 1.247.156-.156-1.868-.156-6.225-.156-13.539.935-.622 1.091-.778 2.182-1.4zm14.339 14.472-.156-.623c-.156 0-.312 0-.468 0-1.091 0-1.247-.622-1.247-2.023v-.933l.156-5.135v-.312c0-3.423-1.402-5.135-4.831-5.135-1.871 0-3.585.623-4.988 1.712v1.556h.312c.935-1.401 2.182-2.179 3.896-2.179 2.494 0 3.429 1.245 3.429 4.046v.623c-.779.622-2.649.778-5.299 1.4-2.338.623-3.585 1.868-3.585 4.046 0 2.334 1.559 3.735 4.209 3.735 1.714 0 3.273-.778 4.519-2.023.156 1.245.624 1.712 1.715 1.712.779 0 1.558-.311 2.338-.467zm-4.208-3.112c0 .466 0 .778-.468 1.245-.779.778-2.026 1.4-2.961 1.4-1.715 0-2.65-1.089-2.65-2.957 0-2.334 1.87-2.956 6.234-3.734zm27.119-10.738c-.312 0-.624 0-.936 0-.311 0-.623 0-.935 0-1.87 5.602-3.273 9.182-4.208 11.049-.935-2.023-2.338-5.602-3.74-11.049-.312 0-.624.156-.935.156-.312 0-.624 0-.936-.156-1.091 4.046-2.493 7.781-3.896 11.049-2.026-5.135-3.273-8.87-3.741-11.049-.467.156-.935.156-1.402.156-.468 0-.935 0-1.403-.156 2.961 7.003 4.676 11.827 5.299 14.317.312-.156.624-.156.935-.156h.935c.624-2.645 1.871-6.224 3.741-10.893 2.338 6.225 3.585 9.804 3.74 10.893.312 0 .624-.155.936-.155.311 0 .623 0 .935.155.623-2.645 2.649-7.314 5.611-14.161zm10.13 9.804c0-1.867-.935-2.957-2.961-3.424l-2.026-.622c-1.559-.467-2.338-1.089-2.338-2.49 0-1.556 1.091-2.49 2.494-2.49 1.247 0 2.338.623 3.429 2.023.155-.622.311-1.245.623-1.867-.935-.622-2.338-.934-3.741-.934-2.805 0-4.675 1.712-4.675 4.202 0 2.178.935 3.268 3.273 3.89l1.402.467c1.559.467 2.338 1.089 2.338 2.49 0 1.712-1.091 2.801-2.961 2.801-1.403 0-2.65-.778-3.741-2.334-.155.778-.467 1.556-.779 2.334 1.091.778 2.338 1.089 3.897 1.089 3.584-.311 5.766-2.49 5.766-5.135zm15.43 4.513c-2.805-3.268-5.143-6.069-7.169-8.403l2.805-2.49c1.715-1.556 2.961-2.646 3.897-3.424-.468 0-.936.156-1.403.156-.468 0-.935 0-1.403-.156-3.273 4.202-5.767 6.225-6.39 6.225-.312 0-.468-.156-.468-.467v-.934c0-3.734 0-8.092.156-13.071-.467 0-.779.155-1.247.155-.467 0-.779 0-1.246-.155.155 3.89.155 7.625.155 11.36 0 2.956 0 6.691-.155 11.359.467-.155.935-.155 1.246-.155.468 0 .936 0 1.247.155-.156-2.334-.156-4.201-.156-5.446v-1.712c0-.311 0-.467.312-.467.468 0 2.65 2.49 6.39 7.47.468-.156 1.091-.156 1.559-.156.779 0 1.403 0 1.87.156zm14.027-.467-.156-.623c-.155 0-.311 0-.467 0-1.091 0-1.403-.622-1.403-2.023v-.933l.156-5.135v-.312c0-3.423-1.403-5.135-4.832-5.135-1.87 0-3.584.623-4.831 1.712v1.556h.312c.935-1.401 2.182-2.179 3.896-2.179 2.494 0 3.429 1.245 3.429 4.046v.623c-.779.622-2.65.778-5.299 1.4-2.338.623-3.585 1.868-3.585 4.046 0 2.334 1.559 3.735 4.208 3.735 1.715 0 3.273-.778 4.52-2.023.156 1.245.623 1.712 1.714 1.712.78 0 1.559-.311 2.338-.467zm-4.208-3.112c0 .466 0 .778-.623 1.245-.78.778-2.026 1.4-2.962 1.4-1.714 0-2.649-1.089-2.649-2.957 0-2.334 1.87-2.956 6.234-3.734z" fill="#000"/></g></svg>