<?xml version="1.0" standalone="no"?>
<!DOCTYPE svg PUBLIC "-//W3C//DTD SVG 20010904//EN"
 "http://www.w3.org/TR/2001/REC-SVG-20010904/DTD/svg10.dtd">
<svg version="1.0" xmlns="http://www.w3.org/2000/svg"
 width="155.000000pt" height="159.000000pt" viewBox="0 0 155.000000 159.000000"
 preserveAspectRatio="xMidYMid meet">

<g transform="translate(0.000000,159.000000) scale(0.100000,-0.100000)"
fill="#000000" stroke="none">
<path d="M40 800 l0 -740 740 0 740 0 0 740 0 740 -740 0 -740 0 0 -740z m786
545 c236 -25 434 -47 439 -49 6 -3 -191 -5 -437 -5 l-448 -1 -1 -542 c0 -299
-2 -538 -4 -533 -3 6 -22 242 -45 525 -22 283 -42 530 -45 549 l-4 34 20 -22
c22 -23 58 -28 77 -9 7 7 12 26 12 43 0 17 -5 36 -12 43 -16 16 -38 18 448
-33z m449 -267 c-21 -358 -98 -589 -244 -737 -67 -68 -188 -140 -210 -127 -18
11 -33 86 -26 127 7 41 -3 50 -25 24 -15 -18 -43 -19 -70 -3 -18 11 -15 14 28
35 26 13 52 23 58 23 6 0 9 18 8 43 -1 23 -3 65 -4 92 l-2 50 -19 -40 c-10
-22 -19 -48 -19 -58 0 -11 -6 -17 -17 -15 -14 2 -19 -6 -24 -37 -3 -22 -7 -33
-8 -24 -2 22 -80 52 -98 38 -8 -7 -13 -8 -13 -1 0 21 29 34 61 27 32 -7 60 12
38 26 -6 4 0 21 15 44 20 29 26 50 26 89 l-1 51 -14 -39 c-16 -46 -71 -106
-97 -106 -22 0 -23 13 -1 31 25 21 43 73 42 121 -1 43 -1 43 -10 12 -10 -34
-80 -104 -104 -104 -21 0 -19 7 10 41 26 31 45 87 45 129 -1 22 -2 21 -16 -10
-19 -45 -63 -90 -86 -90 -23 0 -23 2 6 45 25 36 47 115 45 163 0 20 -5 13 -16
-25 -18 -60 -52 -103 -82 -103 -20 0 -20 0 0 34 15 26 21 62 27 159 9 144 21
172 77 183 70 13 109 -42 85 -117 -10 -30 -11 -45 -2 -64 11 -25 95 -85 117
-85 7 0 18 32 25 70 14 75 12 82 -31 104 -12 6 -24 17 -27 24 -3 11 0 12 18 2
18 -10 21 -9 18 2 -3 7 -17 14 -31 16 -31 4 -36 20 -9 28 9 3 25 10 34 15 11
5 27 5 43 -1 l25 -10 0 -160 0 -160 25 0 c62 0 158 80 196 164 25 56 25 86 -1
79 -11 -3 -20 -1 -20 5 0 18 20 24 36 11 34 -28 -8 -173 -69 -238 -37 -38
-100 -70 -139 -71 l-28 0 1 -272 c1 -153 5 -262 9 -248 4 14 8 53 9 88 l1 63
30 -22 c26 -20 33 -21 57 -10 l27 12 -43 25 c-24 13 -49 24 -56 24 -10 0 -13
20 -11 85 1 46 5 87 8 90 6 7 38 -68 38 -89 0 -8 8 -13 17 -12 13 1 19 -9 23
-34 4 -26 7 -31 12 -17 4 9 16 17 27 17 11 0 23 5 27 11 3 6 15 8 26 6 12 -4
18 -1 15 6 -2 7 -20 11 -44 9 -29 -2 -42 1 -46 12 -3 9 -1 18 4 22 6 4 2 16
-12 30 -19 20 -24 38 -26 92 -2 61 -1 64 8 30 13 -46 74 -118 100 -118 23 0
25 13 3 31 -24 20 -41 60 -46 112 -6 55 -6 55 25 -4 21 -39 81 -89 93 -76 3 2
-9 26 -25 53 -26 43 -53 144 -38 144 4 0 15 -20 25 -43 22 -50 58 -87 84 -87
24 0 23 13 -2 35 -25 22 -50 105 -49 159 l0 41 15 -49 c19 -61 40 -93 66 -102
29 -9 32 1 11 32 -14 22 -18 52 -21 138 -3 128 -19 178 -63 196 -37 16 -79 2
-99 -32 -12 -23 -12 -34 -1 -78 12 -48 12 -54 -6 -79 -19 -25 -88 -71 -108
-71 -12 0 -39 108 -33 136 2 10 16 25 31 32 29 14 38 36 11 25 -12 -4 -15 -2
-12 8 2 8 17 15 32 17 15 2 26 8 23 15 -5 15 -57 29 -89 23 -25 -5 -28 -3 -28
24 l0 30 231 0 231 0 -7 -112z m-400 42 c-3 -5 -13 -10 -21 -10 -8 0 -12 5 -9
10 3 6 13 10 21 10 8 0 12 -4 9 -10z m215 -25 c0 -8 -6 -15 -14 -15 -17 0 -28
14 -19 24 12 12 33 6 33 -9z m21 -40 c-1 -15 -24 -12 -29 3 -3 9 2 13 12 10
10 -1 17 -7 17 -13z"/>
<path d="M765 1120 c3 -5 11 -10 16 -10 6 0 7 5 4 10 -3 6 -11 10 -16 10 -6 0
-7 -4 -4 -10z"/>
<path d="M550 1095 c0 -8 7 -15 15 -15 8 0 15 7 15 15 0 8 -7 15 -15 15 -8 0
-15 -7 -15 -15z"/>
<path d="M587 1073 c-12 -11 -8 -23 8 -23 8 0 15 7 15 15 0 16 -12 20 -23 8z"/>
<path d="M522 1058 c6 -18 28 -21 28 -4 0 9 -7 16 -16 16 -9 0 -14 -5 -12 -12z"/>
<path d="M576 985 c20 -120 121 -224 217 -225 41 0 37 36 -5 45 -80 17 -152
79 -195 170 l-24 50 7 -40z"/>
</g>
</svg>
